<svg xmlns="http://www.w3.org/2000/svg" height="1000" width="1000" version="1.1" xmlns:xlink="http://www.w3.org/1999/xlink" xmlns:svgjs="http://svgjs.com/svgjs"><rect fill="#fffcf2" width="1000" height="1000"></rect><g><path d="M694.5 677.78C694.49 677.77 694.49 677.75 694.49 677.74 694.49 677.72 694.5 677.71 694.51 677.7 694.52 677.69 694.54 677.68 694.56 677.69 694.57 677.69 694.59 677.69 694.59 677.71L707.35 691.26C707.36 691.28 707.37 691.28 707.38 691.28 707.4 691.29 707.41 691.28 707.42 691.28 707.44 691.28 707.44 691.26 707.45 691.25 707.45 691.24 707.46 691.22 707.45 691.21 704.91 676.43 701.94 659.88 698.89 642.49 698.88 642.48 698.88 642.48 698.87 642.47L684.95 617.64C684.94 617.63 684.94 617.61 684.94 617.6 684.95 617.59 684.96 617.57 684.97 617.56 684.98 617.55 685 617.55 685.01 617.55 685.03 617.55 685.04 617.55 685.05 617.57L696.44 628.95C696.45 628.96 696.46 628.96 696.47 628.97 696.49 628.97 696.5 628.97 696.51 628.96 696.53 628.96 696.53 628.94 696.54 628.93 696.54 628.92 696.54 628.91 696.54 628.89 694.59 617.54 692.56 605.92 690.53 594.4 690.53 594.39 690.53 594.39 690.52 594.38L677.92 569.59C677.91 569.58 677.91 569.57 677.91 569.55 677.92 569.54 677.92 569.52 677.94 569.52 677.95 569.5 677.97 569.5 677.98 569.5 677.99 569.5 678.01 569.51 678.02 569.52L687.74 579.24C687.75 579.25 687.76 579.26 687.78 579.26 687.79 579.26 687.8 579.26 687.82 579.26 687.83 579.25 687.83 579.24 687.84 579.22 687.85 579.21 687.85 579.2 687.85 579.19 681.32 541.75 674.97 506.01 670.64 481.18 670.63 481.16 670.63 481.14 670.61 481.14 670.6 481.13 670.59 481.13 670.58 481.13 670.56 481.13 670.54 481.13 670.53 481.14 670.52 481.14 670.51 481.16 670.51 481.18 666.94 501.39 662.2 528.79 656.97 558.38 656.97 558.4 656.97 558.41 656.97 558.42 656.98 558.43 656.99 558.44 657 558.45 657.01 558.45 657.02 558.45 657.04 558.45 657.05 558.45 657.06 558.45 657.08 558.43L665.16 550.34C665.18 550.34 665.19 550.33 665.2 550.32 665.22 550.32 665.24 550.33 665.25 550.34 665.26 550.35 665.27 550.36 665.27 550.38 665.27 550.4 665.27 550.41 665.26 550.43L655.57 566.33C655.57 566.34 655.57 566.34 655.57 566.35 652.93 581.21 650.3 596.56 647.59 611.75 647.59 611.77 647.59 611.78 647.59 611.79 647.6 611.81 647.61 611.82 647.62 611.82 647.63 611.83 647.65 611.83 647.66 611.83 647.67 611.82 647.69 611.82 647.69 611.81L659.91 599.6C659.92 599.58 659.93 599.58 659.95 599.58 659.97 599.58 659.98 599.58 659.99 599.59 660 599.6 660.02 599.62 660.02 599.63 660.02 599.64 660.02 599.66 660.01 599.67L645.34 624.9C645.33 624.91 645.33 624.92 645.33 624.93 643.9 633.29 642.46 641.49 641.02 649.52 641.02 649.54 641.02 649.55 641.03 649.57 641.04 649.57 641.04 649.59 641.06 649.59 641.07 649.6 641.08 649.6 641.09 649.6 641.11 649.6 641.12 649.59 641.13 649.58L652.35 638.36C652.36 638.35 652.38 638.34 652.39 638.34 652.41 638.34 652.42 638.35 652.43 638.36 652.45 638.37 652.45 638.38 652.46 638.4 652.46 638.41 652.46 638.43 652.45 638.44L639.28 659.35C639.28 659.36 639.28 659.37 639.28 659.38 636.73 673.96 634.36 687.69 632.15 699.83 632.15 699.85 632.15 699.86 632.16 699.88 632.17 699.89 632.17 699.9 632.19 699.9 632.2 699.91 632.21 699.91 632.22 699.91 632.24 699.91 632.25 699.9 632.26 699.89L647.08 685.07C647.09 685.07 647.11 685.05 647.12 685.05 647.14 685.05 647.15 685.06 647.16 685.07 647.18 685.08 647.19 685.09 647.19 685.11 647.19 685.12 647.19 685.14 647.18 685.16L629.74 713.5C629.73 713.5 629.73 713.51 629.73 713.52 626.42 732.25 624.13 745.58 623.35 749.85 623.35 749.85 623.35 749.86 623.35 749.87 623.35 749.88 623.35 749.89 623.36 749.9 623.37 749.9 623.37 749.91 623.39 749.91 623.39 749.92 623.41 749.92 623.41 749.92H717.56C717.57 749.92 717.58 749.92 717.59 749.91 717.6 749.91 717.61 749.9 717.61 749.9 717.62 749.89 717.62 749.88 717.63 749.87 717.63 749.87 717.63 749.85 717.63 749.85 716.67 744.62 713.44 725.76 708.86 699.88 708.86 699.87 708.86 699.86 708.85 699.86L694.5 677.78Z" fill="#66ab9a" opacity="1" stroke-width="2" stroke="#04051f"></path><path d="M565.22 638C565.21 637.99 565.21 637.97 565.21 637.95 565.22 637.94 565.23 637.93 565.24 637.92 565.25 637.91 565.26 637.91 565.28 637.91 565.3 637.91 565.31 637.92 565.32 637.92L582.95 655.56C582.96 655.57 582.98 655.57 582.99 655.57 583 655.58 583.02 655.57 583.03 655.57 583.04 655.56 583.05 655.55 583.05 655.54 583.06 655.53 583.06 655.51 583.06 655.5 580.68 639.78 578.14 622.8 575.42 604.8 575.42 604.8 575.41 604.79 575.41 604.78L547.61 556.87C547.6 556.85 547.6 556.84 547.6 556.82 547.61 556.81 547.61 556.8 547.63 556.78 547.64 556.78 547.65 556.77 547.67 556.77 547.68 556.77 547.7 556.78 547.71 556.79L571.7 580.78C571.71 580.79 571.72 580.8 571.74 580.8 571.75 580.8 571.76 580.8 571.77 580.79 571.79 580.78 571.79 580.78 571.8 580.76 571.81 580.75 571.81 580.74 571.81 580.73 570.62 572.78 569.36 564.66 568.17 556.46 568.17 556.45 568.17 556.44 568.17 556.44L544.82 510.51C544.81 510.49 544.81 510.48 544.81 510.47 544.82 510.45 544.83 510.43 544.84 510.43 544.85 510.42 544.86 510.41 544.88 510.41 544.9 510.41 544.91 510.42 544.92 510.43L564.02 529.53C564.04 529.55 564.05 529.55 564.06 529.55 564.07 529.55 564.09 529.55 564.1 529.55 564.11 529.54 564.12 529.53 564.13 529.52 564.13 529.51 564.13 529.5 564.13 529.48 562.69 520 561.25 510.43 559.81 500.87 559.81 500.86 559.81 500.85 559.81 500.85L542.34 465.82C542.33 465.81 542.33 465.79 542.33 465.78 542.34 465.76 542.34 465.75 542.36 465.74 542.37 465.73 542.38 465.73 542.4 465.73 542.41 465.73 542.43 465.74 542.44 465.75L556.52 479.83C556.53 479.83 556.54 479.84 556.55 479.85 556.57 479.85 556.59 479.85 556.59 479.84 556.6 479.83 556.62 479.82 556.62 479.81 556.63 479.8 556.63 479.78 556.63 479.77 553.31 457.84 550 436 546.85 414.75 546.85 414.74 546.85 414.73 546.85 414.73L539.44 399.91C539.43 399.9 539.43 399.88 539.43 399.87 539.44 399.85 539.45 399.84 539.46 399.83 539.47 399.82 539.49 399.82 539.5 399.82 539.52 399.82 539.53 399.83 539.54 399.84L545.35 405.65C545.36 405.65 545.38 405.66 545.39 405.67 545.4 405.67 545.41 405.67 545.43 405.66 545.44 405.65 545.45 405.64 545.45 405.63 545.46 405.62 545.46 405.61 545.46 405.59 538.42 358.63 531.89 315.56 527.05 283.16 527.05 283.14 527.04 283.13 527.03 283.12 527.02 283.11 527 283.1 526.98 283.1 526.96 283.1 526.95 283.11 526.94 283.12 526.93 283.13 526.92 283.14 526.92 283.16 521.56 318.47 514.35 366.65 506.55 418.72 506.55 418.74 506.55 418.75 506.55 418.76 506.56 418.77 506.57 418.78 506.58 418.79 506.6 418.79 506.61 418.8 506.62 418.79 506.63 418.79 506.65 418.79 506.65 418.77L518.51 406.93C518.52 406.91 518.54 406.91 518.55 406.91 518.57 406.9 518.58 406.91 518.59 406.92 518.61 406.93 518.62 406.94 518.62 406.95 518.63 406.97 518.62 406.98 518.61 407L504.05 435.45C504.05 435.45 504.04 435.46 504.04 435.47 501.07 455.35 498.01 475.75 494.95 496.06 494.95 496.07 494.95 496.08 494.96 496.1 494.96 496.11 494.98 496.12 494.99 496.13 495 496.13 495.02 496.13 495.03 496.13 495.04 496.13 495.05 496.12 495.06 496.12L510.94 480.23C510.95 480.22 510.97 480.21 510.98 480.21 511 480.21 511.02 480.22 511.03 480.22 511.04 480.24 511.05 480.25 511.05 480.26 511.05 480.28 511.05 480.29 511.04 480.31L492.62 511.76C492.62 511.76 492.62 511.77 492.62 511.78 490.07 528.51 487.61 545.07 485.15 561.29 485.14 561.3 485.15 561.31 485.15 561.32 485.16 561.34 485.17 561.34 485.18 561.35 485.19 561.36 485.21 561.36 485.22 561.36 485.23 561.36 485.24 561.35 485.26 561.34L507.87 538.72C507.88 538.71 507.89 538.71 507.91 538.71 507.93 538.71 507.94 538.71 507.95 538.72 507.96 538.73 507.97 538.74 507.98 538.76 507.98 538.78 507.98 538.79 507.96 538.81L482.74 577.24C482.73 577.25 482.73 577.25 482.72 577.27 479.33 600.04 476.01 621.79 473.04 641.77 473.04 641.79 473.04 641.8 473.04 641.82 473.05 641.82 473.06 641.84 473.07 641.84 473.08 641.85 473.1 641.85 473.11 641.85 473.13 641.84 473.14 641.84 473.14 641.83L488.67 626.3C488.68 626.29 488.7 626.28 488.71 626.28 488.73 626.28 488.74 626.29 488.75 626.3 488.77 626.31 488.77 626.32 488.78 626.33 488.78 626.35 488.78 626.37 488.77 626.38L470.88 656.19C470.88 656.2 470.87 656.21 470.87 656.22 463.56 704.78 458.2 740.43 456.74 749.92 456.74 749.94 456.74 749.94 456.74 749.95 456.74 749.96 456.74 749.97 456.75 749.97 456.75 749.98 456.76 749.99 456.77 749.99 456.78 749.99 456.79 750 456.8 750H597.25C597.26 750 597.27 749.99 597.28 749.99 597.29 749.99 597.3 749.98 597.3 749.97 597.31 749.97 597.31 749.96 597.31 749.96 597.31 749.94 597.31 749.94 597.31 749.92 596.11 741.9 592.11 715.01 586.41 677.45 586.41 677.44 586.41 677.44 586.41 677.43L565.22 638Z" fill="#66ab9a" opacity="1" stroke-width="2" stroke="#04051f"></path><path d="M436.26 668.93C436.26 668.91 436.26 668.91 436.26 668.9L404.75 618.05C404.74 618.03 404.74 618.02 404.74 618 404.74 617.99 404.75 617.98 404.76 617.96 404.78 617.96 404.8 617.95 404.81 617.95 404.83 617.95 404.84 617.96 404.85 617.97L432.11 645.24C432.13 645.24 432.14 645.25 432.15 645.25 432.17 645.26 432.18 645.25 432.19 645.24 432.2 645.24 432.21 645.23 432.22 645.22 432.22 645.21 432.23 645.19 432.22 645.18 428.66 623.83 424.74 600.29 420.58 575.48 420.58 575.46 420.57 575.46 420.57 575.45L388.12 530.32C388.11 530.3 388.1 530.28 388.11 530.26 388.11 530.25 388.12 530.23 388.13 530.22 388.14 530.21 388.16 530.21 388.18 530.21 388.19 530.21 388.21 530.22 388.22 530.23L417.79 559.8C417.8 559.81 417.82 559.81 417.83 559.82 417.84 559.82 417.85 559.82 417.87 559.81 417.88 559.81 417.89 559.8 417.89 559.78 417.9 559.77 417.91 559.76 417.9 559.74 415.53 545.48 413.06 530.89 410.6 516.13 410.6 516.12 410.6 516.11 410.6 516.11L380.73 469.03C380.72 469.01 380.72 468.99 380.72 468.98 380.73 468.97 380.73 468.95 380.74 468.94 380.76 468.93 380.77 468.93 380.79 468.93 380.8 468.93 380.81 468.94 380.83 468.95L406.97 495.09C406.98 495.09 406.99 495.1 407 495.1 407.01 495.1 407.03 495.1 407.04 495.1 407.05 495.09 407.07 495.08 407.07 495.07 407.07 495.05 407.08 495.04 407.07 495.03 404.02 476.76 400.96 458.24 397.9 439.99 397.9 439.97 397.9 439.97 397.9 439.96L374.41 397.31C374.41 397.29 374.4 397.28 374.41 397.27 374.41 397.25 374.42 397.24 374.43 397.23 374.45 397.22 374.46 397.21 374.47 397.22 374.49 397.22 374.5 397.22 374.52 397.24L393.83 416.56C393.85 416.56 393.86 416.57 393.87 416.58 393.89 416.58 393.9 416.58 393.91 416.57 393.92 416.56 393.93 416.55 393.94 416.54 393.94 416.53 393.95 416.51 393.94 416.5 383.24 352.81 373.26 292.94 366.2 250.38 366.2 250.36 366.19 250.35 366.18 250.33 366.17 250.32 366.15 250.31 366.13 250.31 366.12 250.31 366.1 250.32 366.09 250.33 366.07 250.35 366.07 250.36 366.07 250.38 360.88 281.33 354.13 321.46 346.76 365.65 346.76 365.67 346.76 365.68 346.76 365.69 346.77 365.7 346.77 365.71 346.79 365.72 346.79 365.72 346.81 365.73 346.82 365.73 346.83 365.73 346.84 365.72 346.86 365.72L360.85 357.29C360.86 357.27 360.88 357.27 360.89 357.27 360.91 357.28 360.93 357.29 360.93 357.3 360.95 357.31 360.95 357.33 360.95 357.35 360.95 357.36 360.94 357.38 360.93 357.38L345.64 372.42C345.63 372.44 345.62 372.45 345.62 372.46 341.97 394.14 338.23 416.74 334.41 439.6 334.4 439.62 334.41 439.63 334.41 439.64 334.42 439.65 334.43 439.66 334.44 439.67 334.45 439.67 334.46 439.67 334.48 439.67 334.49 439.67 334.5 439.67 334.52 439.65 342.86 431.16 351.17 422.69 352.83 421.01 352.84 420.99 352.86 420.99 352.87 420.99 352.89 420.99 352.9 420.99 352.91 421 352.93 421.01 352.93 421.02 352.94 421.04 352.94 421.05 352.94 421.06 352.93 421.08L330.2 464.77C330.19 464.78 330.19 464.79 330.19 464.79 326.45 487.06 322.71 509.33 319.06 531.1 319.05 531.11 319.06 531.12 319.07 531.13 319.07 531.15 319.08 531.15 319.09 531.16 319.1 531.17 319.12 531.17 319.13 531.17 319.14 531.17 319.15 531.16 319.17 531.15L348.23 502.08C348.25 502.07 348.26 502.06 348.28 502.06 348.29 502.06 348.31 502.06 348.32 502.08 348.33 502.08 348.34 502.1 348.34 502.11 348.35 502.13 348.34 502.15 348.33 502.16L315.71 550.89C315.7 550.89 315.7 550.91 315.7 550.91 312.81 568.15 310 584.87 307.29 600.92 307.29 600.93 307.29 600.95 307.3 600.96 307.3 600.97 307.31 600.99 307.32 600.99 307.34 600.99 307.35 601 307.36 601 307.38 600.99 307.39 600.99 307.4 600.98L341.38 567C341.38 566.99 341.4 566.98 341.42 566.98 341.43 566.98 341.45 566.99 341.46 567 341.47 567.01 341.48 567.02 341.49 567.03 341.49 567.05 341.49 567.07 341.47 567.08L302.83 627.63C302.83 627.63 302.82 627.64 302.82 627.65 292.27 690.69 284.27 738.28 282.37 749.83 282.37 749.84 282.37 749.85 282.37 749.86 282.38 749.87 282.38 749.88 282.38 749.88 282.39 749.89 282.4 749.9 282.41 749.9 282.42 749.9 282.43 749.91 282.44 749.91H449.66C449.67 749.91 449.68 749.9 449.69 749.9 449.69 749.9 449.7 749.89 449.71 749.88 449.71 749.88 449.72 749.87 449.72 749.86 449.73 749.85 449.73 749.84 449.72 749.83 448.34 740.96 443.32 710.92 436.26 668.93Z" fill="#66ab9a" opacity="1" stroke-width="2" stroke="#04051f"></path><path d="M366.13 250L366.18 749.91" stroke="#000000" stroke-width="2" stroke-linecap="round" stroke-linejoin="round" opacity="1" fill="none"></path><path d="M526.98 282.74V749.91" stroke="#000000" stroke-width="2" stroke-linecap="round" stroke-linejoin="round" opacity="1" fill="none"></path><path d="M670.58 480.81L670.49 749.91" stroke="#000000" stroke-width="2" stroke-linecap="round" stroke-linejoin="round" opacity="1" fill="none"></path><path d="M339.32 410.56L354.67 395.21" stroke="#000000" stroke-width="2" stroke-linecap="round" stroke-linejoin="round" opacity="1" fill="none"></path><path d="M326.78 485.25L347.16 464.87" stroke="#000000" stroke-width="2" stroke-linecap="round" stroke-linejoin="round" opacity="1" fill="none"></path><path d="M322.61 510.23L352.36 480.39" stroke="#000000" stroke-width="2" stroke-linecap="round" stroke-linejoin="round" opacity="1" fill="none"></path><path d="M311.69 575.46L334.12 553.04" stroke="#000000" stroke-width="2" stroke-linecap="round" stroke-linejoin="round" opacity="1" fill="none"></path><path d="M296.6 665.5L326.44 635.66" stroke="#000000" stroke-width="2" stroke-linecap="round" stroke-linejoin="round" opacity="1" fill="none"></path><path d="M399.69 577.5L425.27 603.79" stroke="#000000" stroke-width="2" stroke-linecap="round" stroke-linejoin="round" opacity="1" fill="none"></path><path d="M389.12 507.5L412.81 531.29" stroke="#000000" stroke-width="2" stroke-linecap="round" stroke-linejoin="round" opacity="1" fill="none"></path><path d="M375.9 370.91L388.28 382.76" stroke="#000000" stroke-width="2" stroke-linecap="round" stroke-linejoin="round" opacity="1" fill="none"></path><path d="M400.96 659.36L441.4 699.86" stroke="#000000" stroke-width="2" stroke-linecap="round" stroke-linejoin="round" opacity="1" fill="none"></path><path d="M500 462.74L514.19 448.42" stroke="#000000" stroke-width="2" stroke-linecap="round" stroke-linejoin="round" opacity="1" fill="none"></path><path d="M488.83 537.34L507.72 518.25" stroke="#000000" stroke-width="2" stroke-linecap="round" stroke-linejoin="round" opacity="1" fill="none"></path><path d="M477.06 615.36L499.36 592.94" stroke="#000000" stroke-width="2" stroke-linecap="round" stroke-linejoin="round" opacity="1" fill="none"></path><path d="M554.78 599.93L578.23 624.28" stroke="#000000" stroke-width="2" stroke-linecap="round" stroke-linejoin="round" opacity="1" fill="none"></path><path d="M552.14 675.82L592.05 715.81" stroke="#000000" stroke-width="2" stroke-linecap="round" stroke-linejoin="round" opacity="1" fill="none"></path><path d="M650.83 593.79L662.56 581.94" stroke="#000000" stroke-width="2" stroke-linecap="round" stroke-linejoin="round" opacity="1" fill="none"></path><path d="M643.63 635.4L653.01 625.85" stroke="#000000" stroke-width="2" stroke-linecap="round" stroke-linejoin="round" opacity="1" fill="none"></path><path d="M636.59 675.22L649.43 662.26" stroke="#000000" stroke-width="2" stroke-linecap="round" stroke-linejoin="round" opacity="1" fill="none"></path><path d="M627.43 726.63L641.07 712.99" stroke="#000000" stroke-width="2" stroke-linecap="round" stroke-linejoin="round" opacity="1" fill="none"></path><path d="M688.48 646.49L701.97 660.81" stroke="#000000" stroke-width="2" stroke-linecap="round" stroke-linejoin="round" opacity="1" fill="none"></path><path d="M679.18 593.02L692.45 605.9" stroke="#000000" stroke-width="2" stroke-linecap="round" stroke-linejoin="round" opacity="1" fill="none"></path><path d="M674.92 545.19L683.34 554.06" stroke="#000000" stroke-width="2" stroke-linecap="round" stroke-linejoin="round" opacity="1" fill="none"></path><path d="M689.16 699.26L712.93 723.56" stroke="#000000" stroke-width="2" stroke-linecap="round" stroke-linejoin="round" opacity="1" fill="none"></path></g></svg>